<?xml version="1.0" encoding="UTF-8" standalone="no"?>
<!DOCTYPE svg PUBLIC "-//W3C//DTD SVG 1.1//EN" "http://www.w3.org/Graphics/SVG/1.1/DTD/svg11.dtd">
<!-- Created with matplotlib (http://matplotlib.org/) -->
<svg height="345.6pt" version="1.1" viewBox="0 0 460.8 345.6" width="460.8pt" xmlns="http://www.w3.org/2000/svg" xmlns:xlink="http://www.w3.org/1999/xlink">
 <defs>
  <style type="text/css">
*{stroke-linecap:butt;stroke-linejoin:round;}
  </style>
 </defs>
 <g id="figure_1">
  <g id="patch_1">
   <path d="M 0 345.6  L 460.8 345.6  L 460.8 0  L 0 0  z " style="fill:#ffffff;"/>
  </g>
  <g id="axes_1">
   <g id="patch_2">
    <path d="M 57.6 162.432  L 414.72 162.432  L 414.72 41.472  L 57.6 41.472  z " style="fill:#ffffff;"/>
   </g>
   <g id="matplotlib.axis_1">
    <g id="xtick_1">
     <g id="line2d_1">
      <defs>
       <path d="M 0 0  L 0 3.5  " id="m69fc77d871" style="stroke:#000000;stroke-width:0.8;"/>
      </defs>
      <g>
       <use style="stroke:#000000;stroke-width:0.8;" x="57.6" xlink:href="#m69fc77d871" y="162.432"/>
      </g>
     </g>
     <g id="text_1">
      <!-- 0 -->
      <defs>
       <path d="M 31.78125 66.40625  Q 24.171875 66.40625 20.328125 58.90625  Q 16.5 51.421875 16.5 36.375  Q 16.5 21.390625 20.328125 13.890625  Q 24.171875 6.390625 31.78125 6.390625  Q 39.453125 6.390625 43.28125 13.890625  Q 47.125 21.390625 47.125 36.375  Q 47.125 51.421875 43.28125 58.90625  Q 39.453125 66.40625 31.78125 66.40625  z M 31.78125 74.21875  Q 44.046875 74.21875 50.515625 64.515625  Q 56.984375 54.828125 56.984375 36.375  Q 56.984375 17.96875 50.515625 8.265625  Q 44.046875 -1.421875 31.78125 -1.421875  Q 19.53125 -1.421875 13.0625 8.265625  Q 6.59375 17.96875 6.59375 36.375  Q 6.59375 54.828125 13.0625 64.515625  Q 19.53125 74.21875 31.78125 74.21875  z " id="DejaVuSans-30"/>
      </defs>
      <g transform="translate(54.41875 177.030437)scale(0.1 -0.1)">
       <use xlink:href="#DejaVuSans-30"/>
      </g>
     </g>
    </g>
    <g id="xtick_2">
     <g id="line2d_2">
      <g>
       <use style="stroke:#000000;stroke-width:0.8;" x="129.024" xlink:href="#m69fc77d871" y="162.432"/>
      </g>
     </g>
     <g id="text_2">
      <!-- 200 -->
      <defs>
       <path d="M 19.1875 8.296875  L 53.609375 8.296875  L 53.609375 0  L 7.328125 0  L 7.328125 8.296875  Q 12.9375 14.109375 22.625 23.890625  Q 32.328125 33.6875 34.8125 36.53125  Q 39.546875 41.84375 41.421875 45.53125  Q 43.3125 49.21875 43.3125 52.78125  Q 43.3125 58.59375 39.234375 62.25  Q 35.15625 65.921875 28.609375 65.921875  Q 23.96875 65.921875 18.8125 64.3125  Q 13.671875 62.703125 7.8125 59.421875  L 7.8125 69.390625  Q 13.765625 71.78125 18.9375 73  Q 24.125 74.21875 28.421875 74.21875  Q 39.75 74.21875 46.484375 68.546875  Q 53.21875 62.890625 53.21875 53.421875  Q 53.21875 48.921875 51.53125 44.890625  Q 49.859375 40.875 45.40625 35.40625  Q 44.1875 33.984375 37.640625 27.21875  Q 31.109375 20.453125 19.1875 8.296875  z " id="DejaVuSans-32"/>
      </defs>
      <g transform="translate(119.48025 177.030437)scale(0.1 -0.1)">
       <use xlink:href="#DejaVuSans-32"/>
       <use x="63.623047" xlink:href="#DejaVuSans-30"/>
       <use x="127.246094" xlink:href="#DejaVuSans-30"/>
      </g>
     </g>
    </g>
    <g id="xtick_3">
     <g id="line2d_3">
      <g>
       <use style="stroke:#000000;stroke-width:0.8;" x="200.448" xlink:href="#m69fc77d871" y="162.432"/>
      </g>
     </g>
     <g id="text_3">
      <!-- 400 -->
      <defs>
       <path d="M 37.796875 64.3125  L 12.890625 25.390625  L 37.796875 25.390625  z M 35.203125 72.90625  L 47.609375 72.90625  L 47.609375 25.390625  L 58.015625 25.390625  L 58.015625 17.1875  L 47.609375 17.1875  L 47.609375 0  L 37.796875 0  L 37.796875 17.1875  L 4.890625 17.1875  L 4.890625 26.703125  z " id="DejaVuSans-34"/>
      </defs>
      <g transform="translate(190.90425 177.030437)scale(0.1 -0.1)">
       <use xlink:href="#DejaVuSans-34"/>
       <use x="63.623047" xlink:href="#DejaVuSans-30"/>
       <use x="127.246094" xlink:href="#DejaVuSans-30"/>
      </g>
     </g>
    </g>
    <g id="xtick_4">
     <g id="line2d_4">
      <g>
       <use style="stroke:#000000;stroke-width:0.8;" x="271.872" xlink:href="#m69fc77d871" y="162.432"/>
      </g>
     </g>
     <g id="text_4">
      <!-- 600 -->
      <defs>
       <path d="M 33.015625 40.375  Q 26.375 40.375 22.484375 35.828125  Q 18.609375 31.296875 18.609375 23.390625  Q 18.609375 15.53125 22.484375 10.953125  Q 26.375 6.390625 33.015625 6.390625  Q 39.65625 6.390625 43.53125 10.953125  Q 47.40625 15.53125 47.40625 23.390625  Q 47.40625 31.296875 43.53125 35.828125  Q 39.65625 40.375 33.015625 40.375  z M 52.59375 71.296875  L 52.59375 62.3125  Q 48.875 64.0625 45.09375 64.984375  Q 41.3125 65.921875 37.59375 65.921875  Q 27.828125 65.921875 22.671875 59.328125  Q 17.53125 52.734375 16.796875 39.40625  Q 19.671875 43.65625 24.015625 45.921875  Q 28.375 48.1875 33.59375 48.1875  Q 44.578125 48.1875 50.953125 41.515625  Q 57.328125 34.859375 57.328125 23.390625  Q 57.328125 12.15625 50.6875 5.359375  Q 44.046875 -1.421875 33.015625 -1.421875  Q 20.359375 -1.421875 13.671875 8.265625  Q 6.984375 17.96875 6.984375 36.375  Q 6.984375 53.65625 15.1875 63.9375  Q 23.390625 74.21875 37.203125 74.21875  Q 40.921875 74.21875 44.703125 73.484375  Q 48.484375 72.75 52.59375 71.296875  z " id="DejaVuSans-36"/>
      </defs>
      <g transform="translate(262.32825 177.030437)scale(0.1 -0.1)">
       <use xlink:href="#DejaVuSans-36"/>
       <use x="63.623047" xlink:href="#DejaVuSans-30"/>
       <use x="127.246094" xlink:href="#DejaVuSans-30"/>
      </g>
     </g>
    </g>
    <g id="xtick_5">
     <g id="line2d_5">
      <g>
       <use style="stroke:#000000;stroke-width:0.8;" x="343.296" xlink:href="#m69fc77d871" y="162.432"/>
      </g>
     </g>
     <g id="text_5">
      <!-- 800 -->
      <defs>
       <path d="M 31.78125 34.625  Q 24.75 34.625 20.71875 30.859375  Q 16.703125 27.09375 16.703125 20.515625  Q 16.703125 13.921875 20.71875 10.15625  Q 24.75 6.390625 31.78125 6.390625  Q 38.8125 6.390625 42.859375 10.171875  Q 46.921875 13.96875 46.921875 20.515625  Q 46.921875 27.09375 42.890625 30.859375  Q 38.875 34.625 31.78125 34.625  z M 21.921875 38.8125  Q 15.578125 40.375 12.03125 44.71875  Q 8.5 49.078125 8.5 55.328125  Q 8.5 64.0625 14.71875 69.140625  Q 20.953125 74.21875 31.78125 74.21875  Q 42.671875 74.21875 48.875 69.140625  Q 55.078125 64.0625 55.078125 55.328125  Q 55.078125 49.078125 51.53125 44.71875  Q 48 40.375 41.703125 38.8125  Q 48.828125 37.15625 52.796875 32.3125  Q 56.78125 27.484375 56.78125 20.515625  Q 56.78125 9.90625 50.3125 4.234375  Q 43.84375 -1.421875 31.78125 -1.421875  Q 19.734375 -1.421875 13.25 4.234375  Q 6.78125 9.90625 6.78125 20.515625  Q 6.78125 27.484375 10.78125 32.3125  Q 14.796875 37.15625 21.921875 38.8125  z M 18.3125 54.390625  Q 18.3125 48.734375 21.84375 45.5625  Q 25.390625 42.390625 31.78125 42.390625  Q 38.140625 42.390625 41.71875 45.5625  Q 45.3125 48.734375 45.3125 54.390625  Q 45.3125 60.0625 41.71875 63.234375  Q 38.140625 66.40625 31.78125 66.40625  Q 25.390625 66.40625 21.84375 63.234375  Q 18.3125 60.0625 18.3125 54.390625  z " id="DejaVuSans-38"/>
      </defs>
      <g transform="translate(333.75225 177.030437)scale(0.1 -0.1)">
       <use xlink:href="#DejaVuSans-38"/>
       <use x="63.623047" xlink:href="#DejaVuSans-30"/>
       <use x="127.246094" xlink:href="#DejaVuSans-30"/>
      </g>
     </g>
    </g>
    <g id="xtick_6">
     <g id="line2d_6">
      <g>
       <use style="stroke:#000000;stroke-width:0.8;" x="414.72" xlink:href="#m69fc77d871" y="162.432"/>
      </g>
     </g>
     <g id="text_6">
      <!-- 1000 -->
      <defs>
       <path d="M 12.40625 8.296875  L 28.515625 8.296875  L 28.515625 63.921875  L 10.984375 60.40625  L 10.984375 69.390625  L 28.421875 72.90625  L 38.28125 72.90625  L 38.28125 8.296875  L 54.390625 8.296875  L 54.390625 0  L 12.40625 0  z " id="DejaVuSans-31"/>
      </defs>
      <g transform="translate(401.995 177.030437)scale(0.1 -0.1)">
       <use xlink:href="#DejaVuSans-31"/>
       <use x="63.623047" xlink:href="#DejaVuSans-30"/>
       <use x="127.246094" xlink:href="#DejaVuSans-30"/>
       <use x="190.869141" xlink:href="#DejaVuSans-30"/>
      </g>
     </g>
    </g>
   </g>
   <g id="matplotlib.axis_2">
    <g id="ytick_1">
     <g id="line2d_7">
      <defs>
       <path d="M 0 0  L -3.5 0  " id="mffafa0f94f" style="stroke:#000000;stroke-width:0.8;"/>
      </defs>
      <g>
       <use style="stroke:#000000;stroke-width:0.8;" x="57.6" xlink:href="#mffafa0f94f" y="155.316706"/>
      </g>
     </g>
     <g id="text_7">
      <!-- −75 -->
      <defs>
       <path d="M 10.59375 35.5  L 73.1875 35.5  L 73.1875 27.203125  L 10.59375 27.203125  z " id="DejaVuSans-2212"/>
       <path d="M 8.203125 72.90625  L 55.078125 72.90625  L 55.078125 68.703125  L 28.609375 0  L 18.3125 0  L 43.21875 64.59375  L 8.203125 64.59375  z " id="DejaVuSans-37"/>
       <path d="M 10.796875 72.90625  L 49.515625 72.90625  L 49.515625 64.59375  L 19.828125 64.59375  L 19.828125 46.734375  Q 21.96875 47.46875 24.109375 47.828125  Q 26.265625 48.1875 28.421875 48.1875  Q 40.625 48.1875 47.75 41.5  Q 54.890625 34.8125 54.890625 23.390625  Q 54.890625 11.625 47.5625 5.09375  Q 40.234375 -1.421875 26.90625 -1.421875  Q 22.3125 -1.421875 17.546875 -0.640625  Q 12.796875 0.140625 7.71875 1.703125  L 7.71875 11.625  Q 12.109375 9.234375 16.796875 8.0625  Q 21.484375 6.890625 26.703125 6.890625  Q 35.15625 6.890625 40.078125 11.328125  Q 45.015625 15.765625 45.015625 23.390625  Q 45.015625 31 40.078125 35.4375  Q 35.15625 39.890625 26.703125 39.890625  Q 22.75 39.890625 18.8125 39.015625  Q 14.890625 38.140625 10.796875 36.28125  z " id="DejaVuSans-35"/>
      </defs>
      <g transform="translate(29.495313 159.115925)scale(0.1 -0.1)">
       <use xlink:href="#DejaVuSans-2212"/>
       <use x="83.789062" xlink:href="#DejaVuSans-37"/>
       <use x="147.412109" xlink:href="#DejaVuSans-35"/>
      </g>
     </g>
    </g>
    <g id="ytick_2">
     <g id="line2d_8">
      <g>
       <use style="stroke:#000000;stroke-width:0.8;" x="57.6" xlink:href="#mffafa0f94f" y="119.740235"/>
      </g>
     </g>
     <g id="text_8">
      <!-- −70 -->
      <g transform="translate(29.495313 123.539454)scale(0.1 -0.1)">
       <use xlink:href="#DejaVuSans-2212"/>
       <use x="83.789062" xlink:href="#DejaVuSans-37"/>
       <use x="147.412109" xlink:href="#DejaVuSans-30"/>
      </g>
     </g>
    </g>
    <g id="ytick_3">
     <g id="line2d_9">
      <g>
       <use style="stroke:#000000;stroke-width:0.8;" x="57.6" xlink:href="#mffafa0f94f" y="84.163765"/>
      </g>
     </g>
     <g id="text_9">
      <!-- −65 -->
      <g transform="translate(29.495313 87.962983)scale(0.1 -0.1)">
       <use xlink:href="#DejaVuSans-2212"/>
       <use x="83.789062" xlink:href="#DejaVuSans-36"/>
       <use x="147.412109" xlink:href="#DejaVuSans-35"/>
      </g>
     </g>
    </g>
    <g id="ytick_4">
     <g id="line2d_10">
      <g>
       <use style="stroke:#000000;stroke-width:0.8;" x="57.6" xlink:href="#mffafa0f94f" y="48.587294"/>
      </g>
     </g>
     <g id="text_10">
      <!-- −60 -->
      <g transform="translate(29.495313 52.386513)scale(0.1 -0.1)">
       <use xlink:href="#DejaVuSans-2212"/>
       <use x="83.789062" xlink:href="#DejaVuSans-36"/>
       <use x="147.412109" xlink:href="#DejaVuSans-30"/>
      </g>
     </g>
    </g>
    <g id="text_11">
     <!-- Membrane potential [mV] -->
     <defs>
      <path d="M 9.8125 72.90625  L 24.515625 72.90625  L 43.109375 23.296875  L 61.8125 72.90625  L 76.515625 72.90625  L 76.515625 0  L 66.890625 0  L 66.890625 64.015625  L 48.09375 14.015625  L 38.1875 14.015625  L 19.390625 64.015625  L 19.390625 0  L 9.8125 0  z " id="DejaVuSans-4d"/>
      <path d="M 56.203125 29.59375  L 56.203125 25.203125  L 14.890625 25.203125  Q 15.484375 15.921875 20.484375 11.0625  Q 25.484375 6.203125 34.421875 6.203125  Q 39.59375 6.203125 44.453125 7.46875  Q 49.3125 8.734375 54.109375 11.28125  L 54.109375 2.78125  Q 49.265625 0.734375 44.1875 -0.34375  Q 39.109375 -1.421875 33.890625 -1.421875  Q 20.796875 -1.421875 13.15625 6.1875  Q 5.515625 13.8125 5.515625 26.8125  Q 5.515625 40.234375 12.765625 48.109375  Q 20.015625 56 32.328125 56  Q 43.359375 56 49.78125 48.890625  Q 56.203125 41.796875 56.203125 29.59375  z M 47.21875 32.234375  Q 47.125 39.59375 43.09375 43.984375  Q 39.0625 48.390625 32.421875 48.390625  Q 24.90625 48.390625 20.390625 44.140625  Q 15.875 39.890625 15.1875 32.171875  z " id="DejaVuSans-65"/>
      <path d="M 52 44.1875  Q 55.375 50.25 60.0625 53.125  Q 64.75 56 71.09375 56  Q 79.640625 56 84.28125 50.015625  Q 88.921875 44.046875 88.921875 33.015625  L 88.921875 0  L 79.890625 0  L 79.890625 32.71875  Q 79.890625 40.578125 77.09375 44.375  Q 74.3125 48.1875 68.609375 48.1875  Q 61.625 48.1875 57.5625 43.546875  Q 53.515625 38.921875 53.515625 30.90625  L 53.515625 0  L 44.484375 0  L 44.484375 32.71875  Q 44.484375 40.625 41.703125 44.40625  Q 38.921875 48.1875 33.109375 48.1875  Q 26.21875 48.1875 22.15625 43.53125  Q 18.109375 38.875 18.109375 30.90625  L 18.109375 0  L 9.078125 0  L 9.078125 54.6875  L 18.109375 54.6875  L 18.109375 46.1875  Q 21.1875 51.21875 25.484375 53.609375  Q 29.78125 56 35.6875 56  Q 41.65625 56 45.828125 52.96875  Q 50 49.953125 52 44.1875  z " id="DejaVuSans-6d"/>
      <path d="M 48.6875 27.296875  Q 48.6875 37.203125 44.609375 42.84375  Q 40.53125 48.484375 33.40625 48.484375  Q 26.265625 48.484375 22.1875 42.84375  Q 18.109375 37.203125 18.109375 27.296875  Q 18.109375 17.390625 22.1875 11.75  Q 26.265625 6.109375 33.40625 6.109375  Q 40.53125 6.109375 44.609375 11.75  Q 48.6875 17.390625 48.6875 27.296875  z M 18.109375 46.390625  Q 20.953125 51.265625 25.265625 53.625  Q 29.59375 56 35.59375 56  Q 45.5625 56 51.78125 48.09375  Q 58.015625 40.1875 58.015625 27.296875  Q 58.015625 14.40625 51.78125 6.484375  Q 45.5625 -1.421875 35.59375 -1.421875  Q 29.59375 -1.421875 25.265625 0.953125  Q 20.953125 3.328125 18.109375 8.203125  L 18.109375 0  L 9.078125 0  L 9.078125 75.984375  L 18.109375 75.984375  z " id="DejaVuSans-62"/>
      <path d="M 41.109375 46.296875  Q 39.59375 47.171875 37.8125 47.578125  Q 36.03125 48 33.890625 48  Q 26.265625 48 22.1875 43.046875  Q 18.109375 38.09375 18.109375 28.8125  L 18.109375 0  L 9.078125 0  L 9.078125 54.6875  L 18.109375 54.6875  L 18.109375 46.1875  Q 20.953125 51.171875 25.484375 53.578125  Q 30.03125 56 36.53125 56  Q 37.453125 56 38.578125 55.875  Q 39.703125 55.765625 41.0625 55.515625  z " id="DejaVuSans-72"/>
      <path d="M 34.28125 27.484375  Q 23.390625 27.484375 19.1875 25  Q 14.984375 22.515625 14.984375 16.5  Q 14.984375 11.71875 18.140625 8.90625  Q 21.296875 6.109375 26.703125 6.109375  Q 34.1875 6.109375 38.703125 11.40625  Q 43.21875 16.703125 43.21875 25.484375  L 43.21875 27.484375  z M 52.203125 31.203125  L 52.203125 0  L 43.21875 0  L 43.21875 8.296875  Q 40.140625 3.328125 35.546875 0.953125  Q 30.953125 -1.421875 24.3125 -1.421875  Q 15.921875 -1.421875 10.953125 3.296875  Q 6 8.015625 6 15.921875  Q 6 25.140625 12.171875 29.828125  Q 18.359375 34.515625 30.609375 34.515625  L 43.21875 34.515625  L 43.21875 35.40625  Q 43.21875 41.609375 39.140625 45  Q 35.0625 48.390625 27.6875 48.390625  Q 23 48.390625 18.546875 47.265625  Q 14.109375 46.140625 10.015625 43.890625  L 10.015625 52.203125  Q 14.9375 54.109375 19.578125 55.046875  Q 24.21875 56 28.609375 56  Q 40.484375 56 46.34375 49.84375  Q 52.203125 43.703125 52.203125 31.203125  z " id="DejaVuSans-61"/>
      <path d="M 54.890625 33.015625  L 54.890625 0  L 45.90625 0  L 45.90625 32.71875  Q 45.90625 40.484375 42.875 44.328125  Q 39.84375 48.1875 33.796875 48.1875  Q 26.515625 48.1875 22.3125 43.546875  Q 18.109375 38.921875 18.109375 30.90625  L 18.109375 0  L 9.078125 0  L 9.078125 54.6875  L 18.109375 54.6875  L 18.109375 46.1875  Q 21.34375 51.125 25.703125 53.5625  Q 30.078125 56 35.796875 56  Q 45.21875 56 50.046875 50.171875  Q 54.890625 44.34375 54.890625 33.015625  z " id="DejaVuSans-6e"/>
      <path id="DejaVuSans-20"/>
      <path d="M 18.109375 8.203125  L 18.109375 -20.796875  L 9.078125 -20.796875  L 9.078125 54.6875  L 18.109375 54.6875  L 18.109375 46.390625  Q 20.953125 51.265625 25.265625 53.625  Q 29.59375 56 35.59375 56  Q 45.5625 56 51.78125 48.09375  Q 58.015625 40.1875 58.015625 27.296875  Q 58.015625 14.40625 51.78125 6.484375  Q 45.5625 -1.421875 35.59375 -1.421875  Q 29.59375 -1.421875 25.265625 0.953125  Q 20.953125 3.328125 18.109375 8.203125  z M 48.6875 27.296875  Q 48.6875 37.203125 44.609375 42.84375  Q 40.53125 48.484375 33.40625 48.484375  Q 26.265625 48.484375 22.1875 42.84375  Q 18.109375 37.203125 18.109375 27.296875  Q 18.109375 17.390625 22.1875 11.75  Q 26.265625 6.109375 33.40625 6.109375  Q 40.53125 6.109375 44.609375 11.75  Q 48.6875 17.390625 48.6875 27.296875  z " id="DejaVuSans-70"/>
      <path d="M 30.609375 48.390625  Q 23.390625 48.390625 19.1875 42.75  Q 14.984375 37.109375 14.984375 27.296875  Q 14.984375 17.484375 19.15625 11.84375  Q 23.34375 6.203125 30.609375 6.203125  Q 37.796875 6.203125 41.984375 11.859375  Q 46.1875 17.53125 46.1875 27.296875  Q 46.1875 37.015625 41.984375 42.703125  Q 37.796875 48.390625 30.609375 48.390625  z M 30.609375 56  Q 42.328125 56 49.015625 48.375  Q 55.71875 40.765625 55.71875 27.296875  Q 55.71875 13.875 49.015625 6.21875  Q 42.328125 -1.421875 30.609375 -1.421875  Q 18.84375 -1.421875 12.171875 6.21875  Q 5.515625 13.875 5.515625 27.296875  Q 5.515625 40.765625 12.171875 48.375  Q 18.84375 56 30.609375 56  z " id="DejaVuSans-6f"/>
      <path d="M 18.3125 70.21875  L 18.3125 54.6875  L 36.8125 54.6875  L 36.8125 47.703125  L 18.3125 47.703125  L 18.3125 18.015625  Q 18.3125 11.328125 20.140625 9.421875  Q 21.96875 7.515625 27.59375 7.515625  L 36.8125 7.515625  L 36.8125 0  L 27.59375 0  Q 17.1875 0 13.234375 3.875  Q 9.28125 7.765625 9.28125 18.015625  L 9.28125 47.703125  L 2.6875 47.703125  L 2.6875 54.6875  L 9.28125 54.6875  L 9.28125 70.21875  z " id="DejaVuSans-74"/>
      <path d="M 9.421875 54.6875  L 18.40625 54.6875  L 18.40625 0  L 9.421875 0  z M 9.421875 75.984375  L 18.40625 75.984375  L 18.40625 64.59375  L 9.421875 64.59375  z " id="DejaVuSans-69"/>
      <path d="M 9.421875 75.984375  L 18.40625 75.984375  L 18.40625 0  L 9.421875 0  z " id="DejaVuSans-6c"/>
      <path d="M 8.59375 75.984375  L 29.296875 75.984375  L 29.296875 69  L 17.578125 69  L 17.578125 -6.203125  L 29.296875 -6.203125  L 29.296875 -13.1875  L 8.59375 -13.1875  z " id="DejaVuSans-5b"/>
      <path d="M 28.609375 0  L 0.78125 72.90625  L 11.078125 72.90625  L 34.1875 11.53125  L 57.328125 72.90625  L 67.578125 72.90625  L 39.796875 0  z " id="DejaVuSans-56"/>
      <path d="M 30.421875 75.984375  L 30.421875 -13.1875  L 9.71875 -13.1875  L 9.71875 -6.203125  L 21.390625 -6.203125  L 21.390625 69  L 9.71875 69  L 9.71875 75.984375  z " id="DejaVuSans-5d"/>
     </defs>
     <g transform="translate(23.415625 166.363719)rotate(-90)scale(0.1 -0.1)">
      <use xlink:href="#DejaVuSans-4d"/>
      <use x="86.279297" xlink:href="#DejaVuSans-65"/>
      <use x="147.802734" xlink:href="#DejaVuSans-6d"/>
      <use x="245.214844" xlink:href="#DejaVuSans-62"/>
      <use x="308.691406" xlink:href="#DejaVuSans-72"/>
      <use x="349.804688" xlink:href="#DejaVuSans-61"/>
      <use x="411.083984" xlink:href="#DejaVuSans-6e"/>
      <use x="474.462891" xlink:href="#DejaVuSans-65"/>
      <use x="535.986328" xlink:href="#DejaVuSans-20"/>
      <use x="567.773438" xlink:href="#DejaVuSans-70"/>
      <use x="631.25" xlink:href="#DejaVuSans-6f"/>
      <use x="692.431641" xlink:href="#DejaVuSans-74"/>
      <use x="731.640625" xlink:href="#DejaVuSans-65"/>
      <use x="793.164062" xlink:href="#DejaVuSans-6e"/>
      <use x="856.542969" xlink:href="#DejaVuSans-74"/>
      <use x="895.751953" xlink:href="#DejaVuSans-69"/>
      <use x="923.535156" xlink:href="#DejaVuSans-61"/>
      <use x="984.814453" xlink:href="#DejaVuSans-6c"/>
      <use x="1012.597656" xlink:href="#DejaVuSans-20"/>
      <use x="1044.384766" xlink:href="#DejaVuSans-5b"/>
      <use x="1083.398438" xlink:href="#DejaVuSans-6d"/>
      <use x="1180.810547" xlink:href="#DejaVuSans-56"/>
      <use x="1249.21875" xlink:href="#DejaVuSans-5d"/>
     </g>
    </g>
   </g>
   <g id="line2d_11">
    <path clip-path="url(#p6ebdfd4369)" d="M 57.635712 119.740235  L 78.348672 119.631489  L 80.99136 119.249808  L 86.88384 118.355349  L 90.847872 118.025046  L 95.204736 117.880535  L 97.311744 118.050607  L 101.240064 118.658842  L 105.382656 119.192235  L 109.56096 119.492184  L 111.989376 119.707546  L 112.560768 120.124953  L 113.417856 121.0568  L 117.739008 126.161136  L 119.167488 127.3315  L 120.667392 128.270833  L 122.274432 129.011697  L 124.095744 129.601852  L 126.274176 130.064752  L 129.024 130.409659  L 129.809664 130.373064  L 130.345344 130.056361  L 131.131008 129.302291  L 132.738048 127.35896  L 134.666496 125.152043  L 136.1664 123.775249  L 137.630592 122.729995  L 139.166208 121.904399  L 140.880384 121.239168  L 142.880256 120.71168  L 145.308672 120.311519  L 147.23712 120.114317  L 148.12992 114.873299  L 149.058432 110.730909  L 149.986944 107.560819  L 150.951168 105.024997  L 151.951104 102.99835  L 152.986752 101.381141  L 154.093824 100.056299  L 155.27232 98.98674  L 156.557952 98.114983  L 158.022144 97.393305  L 159.73632 96.805451  L 161.807616 96.341529  L 164.450304 95.990861  L 165.09312 95.932555  L 165.98592 101.038575  L 166.914432 105.066125  L 167.842944 108.142665  L 168.807168 110.599654  L 169.807104 112.560481  L 170.842752 114.123237  L 171.949824 115.402122  L 173.164032 116.460603  L 174.485376 117.313462  L 175.98528 118.011111  L 177.735168 118.572711  L 179.877888 119.016564  L 182.627712 119.347537  L 186.52032 119.574512  L 193.019904 119.700871  L 204.662016 119.690673  L 214.125696 119.709967  L 227.089152 119.753254  L 236.981376 119.633605  L 237.552768 119.191368  L 238.588416 118.419917  L 239.37408 118.132078  L 240.302592 118.047183  L 241.123968 118.173602  L 242.088192 118.565501  L 244.1952 119.522448  L 244.766592 119.307078  L 245.837952 118.907026  L 246.766464 118.829701  L 247.94496 118.962798  L 248.980608 119.319315  L 252.516096 120.748666  L 253.908864 120.95237  L 255.551616 120.956461  L 258.12288 120.707109  L 264.086784 120.095231  L 268.907904 119.872208  L 272.264832 119.725632  L 272.514816 117.742237  L 272.800512 116.406521  L 273.014784 116.169807  L 273.264768 116.239552  L 273.979008 116.841803  L 275.08608 117.632092  L 276.050304 118.309155  L 277.550208 120.761738  L 278.085888 121.029069  L 278.728704 121.080304  L 279.37152 120.985663  L 279.442944 120.694568  L 279.978624 117.378267  L 280.228608 117.151488  L 280.514304 117.236815  L 282.94272 118.498507  L 283.156992 118.710503  L 283.728384 119.799285  L 284.335488 120.740998  L 284.835456 121.152993  L 285.371136 121.315352  L 286.085376 121.272883  L 287.58528 120.883087  L 289.799424 120.389931  L 292.263552 120.090207  L 295.9776 119.885523  L 302.691456 119.772091  L 307.584 119.750969  L 308.4768 104.226058  L 309.3696 92.380025  L 310.298112 82.912252  L 311.226624 75.594407  L 312.190848 69.690106  L 313.155072 65.086062  L 314.155008 61.351988  L 315.190656 58.335358  L 316.226304 55.980772  L 317.297664 54.079262  L 318.404736 52.552876  L 319.583232 51.302354  L 320.833152 50.295703  L 322.22592 49.462706  L 323.797248 48.788166  L 324.36864 48.596007  L 324.511488 84.163765  L 327.975552 84.163765  L 328.83264 76.308826  L 329.72544 70.099335  L 330.653952 65.188584  L 331.582464 61.428683  L 332.546688 58.419956  L 333.546624 56.014716  L 334.582272 54.095062  L 335.653632 52.566674  L 336.796416 51.319754  L 338.010624 50.317853  L 339.36768 49.487538  L 340.903296 48.813022  L 341.546112 48.59362  L 341.68896 84.163765  L 345.153024 84.163765  L 346.010112 76.308371  L 346.902912 70.09864  L 347.831424 65.187793  L 348.759936 61.427888  L 349.72416 58.419209  L 350.724096 56.014045  L 351.759744 54.094479  L 352.831104 52.56618  L 353.973888 51.319348  L 355.188096 50.317528  L 356.545152 49.487286  L 358.080768 48.812836  L 358.723584 48.593456  L 358.866432 84.163765  L 362.330496 84.163765  L 363.187584 76.308368  L 364.080384 70.098635  L 365.008896 65.187788  L 365.937408 61.427883  L 366.901632 58.419204  L 367.901568 56.014041  L 368.937216 54.094475  L 370.008576 52.566177  L 371.15136 51.319345  L 372.365568 50.317526  L 373.722624 49.487285  L 375.25824 48.812835  L 375.901056 48.593455  L 376.043904 84.163765  L 379.507968 84.163765  L 380.365056 76.308368  L 381.257856 70.098635  L 382.186368 65.187788  L 383.11488 61.427883  L 384.079104 58.419204  L 385.07904 56.014041  L 386.114688 54.094475  L 387.186048 52.566177  L 388.328832 51.319345  L 389.54304 50.317526  L 390.900096 49.487285  L 392.435712 48.812835  L 393.078528 48.593455  L 393.221376 84.163765  L 396.68544 84.163765  L 397.542528 76.308368  L 398.435328 70.098635  L 399.36384 65.187788  L 400.292352 61.427883  L 401.256576 58.419204  L 402.256512 56.014041  L 403.29216 54.094475  L 404.36352 52.566177  L 405.506304 51.319345  L 406.720512 50.317526  L 408.077568 49.487285  L 409.613184 48.812835  L 410.256 48.593455  L 410.398848 84.163765  L 413.862912 84.163765  L 414.36288 79.319936  L 414.36288 79.319936  " style="fill:none;stroke:#1f77b4;stroke-linecap:square;stroke-width:1.5;"/>
   </g>
   <g id="line2d_12">
    <path clip-path="url(#p6ebdfd4369)" d="M 57.635712 119.740235  L 76.3488 119.636399  L 77.098752 119.240975  L 78.348672 118.28322  L 80.99136 116.244003  L 82.634112 115.283759  L 84.312576 114.559806  L 86.205312 113.99121  L 88.455168 113.556631  L 91.34784 113.237795  L 94.061952 113.136054  L 94.74048 113.416166  L 95.776128 114.125561  L 99.454464 116.826728  L 101.097216 117.672878  L 102.847104 118.324641  L 104.882688 118.837032  L 107.346816 119.218825  L 110.63232 119.490166  L 111.52512 119.53541  L 112.310784 128.503872  L 113.096448 135.078137  L 113.917824 140.147636  L 114.7392 143.911483  L 115.596288 146.851345  L 116.489088 149.149382  L 117.4176 150.94891  L 118.417536 152.406395  L 119.488896 153.573948  L 120.667392 154.524861  L 121.988736 155.299861  L 123.524352 155.934817  L 125.345664 156.441503  L 127.631232 156.838938  L 129.38112 157.030659  L 130.166784 148.159606  L 130.952448 141.667055  L 131.773824 136.668962  L 132.5952 132.964574  L 133.452288 130.076188  L 134.345088 127.822296  L 135.2736 126.060274  L 136.273536 124.635406  L 137.344896 123.495635  L 138.523392 122.56855  L 139.844736 121.813819  L 141.380352 121.196053  L 143.237376 120.695738  L 145.594368 120.303664  L 147.7728 119.930789  L 148.415616 119.389448  L 149.415552 118.202892  L 152.701056 114.117212  L 154.165248 112.74267  L 155.593728 111.700482  L 157.129344 110.85683  L 158.807808 110.19039  L 160.771968 109.657082  L 163.164672 109.248413  L 165.378816 109.066755  L 165.878784 109.298739  L 166.557312 109.878368  L 167.700096 111.193688  L 170.414208 114.366143  L 171.914112 115.734952  L 173.378304 116.773221  L 174.91392 117.592878  L 176.628096 118.253106  L 178.627968 118.776512  L 181.056384 119.17352  L 184.270464 119.460563  L 189.055872 119.642808  L 198.162432 119.727173  L 201.626496 119.626825  L 203.1264 119.473093  L 205.233408 119.502718  L 208.697472 119.717352  L 210.44736 119.567243  L 212.661504 119.613009  L 216.375552 119.866898  L 221.51808 119.813495  L 234.410112 119.744628  L 236.552832 119.658917  L 236.69568 118.159385  L 237.374208 109.267273  L 237.659904 108.124799  L 237.838464 107.988568  L 238.017024 108.141423  L 238.338432 108.843043  L 240.624 115.39328  L 242.373888 121.923573  L 243.016704 123.330859  L 243.588096 124.102538  L 243.65952 124.171427  L 243.695232 124.119016  L 243.83808 122.724538  L 244.55232 113.921536  L 244.838016 112.995754  L 245.016576 112.935456  L 245.230848 113.183026  L 245.659392 114.180336  L 246.802176 116.926184  L 247.730688 118.871392  L 249.587712 124.426567  L 250.194816 125.370939  L 250.730496 125.825374  L 251.266176 125.991576  L 251.837568 125.926816  L 252.551808 125.603379  L 253.623168 124.842341  L 256.87296 122.409252  L 258.408576 121.599339  L 260.051328 120.985799  L 261.944064 120.522104  L 264.336768 120.176896  L 267.657984 119.938951  L 272.836224 119.59567  L 273.871872 119.118457  L 274.871808 118.934183  L 276.193152 118.929965  L 277.085952 119.148568  L 279.514368 119.861469  L 279.942912 119.748373  L 281.228544 119.303508  L 282.442752 119.172831  L 283.692672 119.234886  L 284.90688 119.599179  L 286.478208 119.996968  L 288.013824 120.135126  L 290.44224 120.095281  L 300.120192 119.796404  L 307.869696 119.608869  L 308.226816 119.090853  L 308.726784 117.895344  L 309.512448 115.329128  L 313.690752 100.639325  L 314.90496 97.574814  L 316.083456 95.174985  L 317.261952 93.261971  L 318.47616 91.712082  L 319.72608 90.475548  L 321.047424 89.478831  L 322.511616 88.658641  L 324.154368 88.000433  L 324.404352 87.919334  L 325.190016 92.141844  L 325.97568 95.201844  L 326.761344 97.421069  L 327.58272 99.093499  L 328.261248 100.045095  L 328.65408 100.220885  L 329.046912 100.147083  L 329.54688 99.790428  L 330.225408 98.99779  L 331.439616 97.165306  L 333.796608 93.6131  L 335.225088 91.884287  L 336.582144 90.580807  L 337.974912 89.544685  L 339.474816 88.706629  L 341.15328 88.030394  L 341.581824 87.892794  L 342.367488 92.121754  L 343.153152 95.186619  L 343.938816 97.40952  L 344.760192 99.084837  L 345.43872 100.038256  L 345.831552 100.214901  L 346.224384 100.141833  L 346.724352 99.785965  L 347.40288 98.994186  L 348.617088 97.162801  L 350.97408 93.611794  L 352.40256 91.883383  L 353.759616 90.580161  L 355.152384 89.544222  L 356.652288 88.706305  L 358.330752 88.030174  L 358.759296 87.892594  L 359.54496 92.121605  L 360.330624 95.186509  L 361.116288 97.409438  L 361.937664 99.084777  L 362.616192 100.038209  L 363.009024 100.21486  L 363.401856 100.141797  L 363.901824 99.785935  L 364.580352 98.994162  L 365.79456 97.162785  L 368.151552 93.611786  L 369.580032 91.883377  L 370.937088 90.580157  L 372.329856 89.54422  L 373.82976 88.706303  L 375.508224 88.030172  L 375.936768 87.892593  L 376.722432 92.121604  L 377.508096 95.186508  L 378.29376 97.409437  L 379.115136 99.084776  L 379.793664 100.038209  L 380.186496 100.21486  L 380.579328 100.141797  L 381.079296 99.785935  L 381.757824 98.994162  L 382.972032 97.162785  L 385.329024 93.611786  L 386.757504 91.883377  L 388.11456 90.580157  L 389.507328 89.54422  L 391.007232 88.706303  L 392.685696 88.030172  L 393.11424 87.892593  L 393.899904 92.121604  L 394.685568 95.186508  L 395.471232 97.409437  L 396.292608 99.084776  L 396.971136 100.038209  L 397.363968 100.21486  L 397.7568 100.141797  L 398.256768 99.785935  L 398.935296 98.994162  L 400.149504 97.162785  L 402.506496 93.611786  L 403.934976 91.883377  L 405.292032 90.580157  L 406.6848 89.54422  L 408.184704 88.706303  L 409.863168 88.030172  L 410.291712 87.892593  L 411.077376 92.121604  L 411.86304 95.186508  L 412.648704 97.409437  L 413.47008 99.084776  L 414.148608 100.038209  L 414.36288 100.169869  L 414.36288 100.169869  " style="fill:none;stroke:#ff7f0e;stroke-linecap:square;stroke-width:1.5;"/>
   </g>
   <g id="line2d_13">
    <path clip-path="url(#p6ebdfd4369)" d="M 57.635712 119.740235  L 75.81312 119.740235  L 76.670208 103.293584  L 77.527296 91.0182  L 78.384384 81.848872  L 79.241472 74.994417  L 80.09856 69.866583  L 80.955648 66.027587  L 81.812736 63.151348  L 82.705536 60.917694  L 83.598336 59.261519  L 84.526848 57.990492  L 85.526784 56.996965  L 86.598144 56.241491  L 87.848064 55.639651  L 89.312256 55.187068  L 91.204992 54.846505  L 93.66912 54.624639  L 94.526208 71.02687  L 95.383296 83.268366  L 96.240384 92.411793  L 97.097472 99.246412  L 97.95456 104.359025  L 98.811648 108.186316  L 99.668736 111.053534  L 100.561536 113.279966  L 101.454336 114.930607  L 102.382848 116.197235  L 103.382784 117.187186  L 104.454144 117.939815  L 105.704064 118.539267  L 107.203968 118.99845  L 109.096704 119.333532  L 113.025024 119.942957  L 118.524672 121.98907  L 120.845952 122.455437  L 123.702912 122.789852  L 127.666944 123.011711  L 130.09536 122.98841  L 131.273856 122.62805  L 136.094976 120.942289  L 138.416256 120.470353  L 141.273216 120.128498  L 145.201536 119.901651  L 152.343936 119.533886  L 159.272064 119.004662  L 165.27168 118.81677  L 168.378624 118.874984  L 174.521088 119.334499  L 180.09216 119.592518  L 188.091648 119.711526  L 200.80512 119.738397  L 200.876544 119.279676  L 201.376512 114.148067  L 201.590784 113.794961  L 201.769344 113.878242  L 202.162176 114.445927  L 203.30496 116.129303  L 204.269184 117.137027  L 204.519168 117.461972  L 204.876288 118.579331  L 205.661952 120.991978  L 206.126208 121.770429  L 206.554752 122.111112  L 207.019008 122.199762  L 207.626112 122.062039  L 207.94752 121.928969  L 208.018944 121.435681  L 208.554624 115.913111  L 208.768896 115.564527  L 208.983168 115.626638  L 209.447424 116.136961  L 210.518784 117.253341  L 211.768704 118.428991  L 213.197184 122.089924  L 213.625728 122.425965  L 214.089984 122.499437  L 214.661376 122.345812  L 215.839872 121.730614  L 217.518336 120.929786  L 219.053952 120.456283  L 220.946688 120.120124  L 223.589376 119.897408  L 228.053376 119.7763  L 237.552768 119.559932  L 238.981248 119.254149  L 240.44544 119.201161  L 241.945344 119.353806  L 244.480896 119.658588  L 246.69504 119.455168  L 248.6592 119.574538  L 253.873152 120.131134  L 257.087232 120.07921  L 267.979392 119.785939  L 286.085376 119.718068  L 297.263232 119.756159  L 309.833856 119.619354  L 311.798016 119.244109  L 319.583232 117.517791  L 322.94016 117.140024  L 325.332864 117.049615  L 327.261312 117.320862  L 330.189696 117.70029  L 332.260992 117.700264  L 335.653632 117.43601  L 341.724672 116.988684  L 342.974592 117.072493  L 348.724224 117.718947  L 351.402624 117.562961  L 359.330688 116.995031  L 360.902016 117.184272  L 364.758912 117.70487  L 366.86592 117.685185  L 370.651392 117.376323  L 376.186752 116.98725  L 377.508096 117.0966  L 382.686336 117.721656  L 385.114752 117.615153  L 394.149888 117.030704  L 396.32832 117.366655  L 398.863872 117.692148  L 400.899456 117.700182  L 404.18496 117.451314  L 410.43456 116.988525  L 411.68448 117.072384  L 414.36288 117.508789  L 414.36288 117.508789  " style="fill:none;stroke:#2ca02c;stroke-linecap:square;stroke-width:1.5;"/>
   </g>
   <g id="patch_3">
    <path d="M 57.6 162.432  L 57.6 41.472  " style="fill:none;stroke:#000000;stroke-linecap:square;stroke-linejoin:miter;stroke-width:0.8;"/>
   </g>
   <g id="patch_4">
    <path d="M 414.72 162.432  L 414.72 41.472  " style="fill:none;stroke:#000000;stroke-linecap:square;stroke-linejoin:miter;stroke-width:0.8;"/>
   </g>
   <g id="patch_5">
    <path d="M 57.6 162.432  L 414.72 162.432  " style="fill:none;stroke:#000000;stroke-linecap:square;stroke-linejoin:miter;stroke-width:0.8;"/>
   </g>
   <g id="patch_6">
    <path d="M 57.6 41.472  L 414.72 41.472  " style="fill:none;stroke:#000000;stroke-linecap:square;stroke-linejoin:miter;stroke-width:0.8;"/>
   </g>
   <g id="text_12">
    <!-- Responses of iaf_cond_alpha_mc neuron -->
    <defs>
     <path d="M 44.390625 34.1875  Q 47.5625 33.109375 50.5625 29.59375  Q 53.5625 26.078125 56.59375 19.921875  L 66.609375 0  L 56 0  L 46.6875 18.703125  Q 43.0625 26.03125 39.671875 28.421875  Q 36.28125 30.8125 30.421875 30.8125  L 19.671875 30.8125  L 19.671875 0  L 9.8125 0  L 9.8125 72.90625  L 32.078125 72.90625  Q 44.578125 72.90625 50.734375 67.671875  Q 56.890625 62.453125 56.890625 51.90625  Q 56.890625 45.015625 53.6875 40.46875  Q 50.484375 35.9375 44.390625 34.1875  z M 19.671875 64.796875  L 19.671875 38.921875  L 32.078125 38.921875  Q 39.203125 38.921875 42.84375 42.21875  Q 46.484375 45.515625 46.484375 51.90625  Q 46.484375 58.296875 42.84375 61.546875  Q 39.203125 64.796875 32.078125 64.796875  z " id="DejaVuSans-52"/>
     <path d="M 44.28125 53.078125  L 44.28125 44.578125  Q 40.484375 46.53125 36.375 47.5  Q 32.28125 48.484375 27.875 48.484375  Q 21.1875 48.484375 17.84375 46.4375  Q 14.5 44.390625 14.5 40.28125  Q 14.5 37.15625 16.890625 35.375  Q 19.28125 33.59375 26.515625 31.984375  L 29.59375 31.296875  Q 39.15625 29.25 43.1875 25.515625  Q 47.21875 21.78125 47.21875 15.09375  Q 47.21875 7.46875 41.1875 3.015625  Q 35.15625 -1.421875 24.609375 -1.421875  Q 20.21875 -1.421875 15.453125 -0.5625  Q 10.6875 0.296875 5.421875 2  L 5.421875 11.28125  Q 10.40625 8.6875 15.234375 7.390625  Q 20.0625 6.109375 24.8125 6.109375  Q 31.15625 6.109375 34.5625 8.28125  Q 37.984375 10.453125 37.984375 14.40625  Q 37.984375 18.0625 35.515625 20.015625  Q 33.0625 21.96875 24.703125 23.78125  L 21.578125 24.515625  Q 13.234375 26.265625 9.515625 29.90625  Q 5.8125 33.546875 5.8125 39.890625  Q 5.8125 47.609375 11.28125 51.796875  Q 16.75 56 26.8125 56  Q 31.78125 56 36.171875 55.265625  Q 40.578125 54.546875 44.28125 53.078125  z " id="DejaVuSans-73"/>
     <path d="M 37.109375 75.984375  L 37.109375 68.5  L 28.515625 68.5  Q 23.6875 68.5 21.796875 66.546875  Q 19.921875 64.59375 19.921875 59.515625  L 19.921875 54.6875  L 34.71875 54.6875  L 34.71875 47.703125  L 19.921875 47.703125  L 19.921875 0  L 10.890625 0  L 10.890625 47.703125  L 2.296875 47.703125  L 2.296875 54.6875  L 10.890625 54.6875  L 10.890625 58.5  Q 10.890625 67.625 15.140625 71.796875  Q 19.390625 75.984375 28.609375 75.984375  z " id="DejaVuSans-66"/>
     <path d="M 50.984375 -16.609375  L 50.984375 -23.578125  L -0.984375 -23.578125  L -0.984375 -16.609375  z " id="DejaVuSans-5f"/>
     <path d="M 48.78125 52.59375  L 48.78125 44.1875  Q 44.96875 46.296875 41.140625 47.34375  Q 37.3125 48.390625 33.40625 48.390625  Q 24.65625 48.390625 19.8125 42.84375  Q 14.984375 37.3125 14.984375 27.296875  Q 14.984375 17.28125 19.8125 11.734375  Q 24.65625 6.203125 33.40625 6.203125  Q 37.3125 6.203125 41.140625 7.25  Q 44.96875 8.296875 48.78125 10.40625  L 48.78125 2.09375  Q 45.015625 0.34375 40.984375 -0.53125  Q 36.96875 -1.421875 32.421875 -1.421875  Q 20.0625 -1.421875 12.78125 6.34375  Q 5.515625 14.109375 5.515625 27.296875  Q 5.515625 40.671875 12.859375 48.328125  Q 20.21875 56 33.015625 56  Q 37.15625 56 41.109375 55.140625  Q 45.0625 54.296875 48.78125 52.59375  z " id="DejaVuSans-63"/>
     <path d="M 45.40625 46.390625  L 45.40625 75.984375  L 54.390625 75.984375  L 54.390625 0  L 45.40625 0  L 45.40625 8.203125  Q 42.578125 3.328125 38.25 0.953125  Q 33.9375 -1.421875 27.875 -1.421875  Q 17.96875 -1.421875 11.734375 6.484375  Q 5.515625 14.40625 5.515625 27.296875  Q 5.515625 40.1875 11.734375 48.09375  Q 17.96875 56 27.875 56  Q 33.9375 56 38.25 53.625  Q 42.578125 51.265625 45.40625 46.390625  z M 14.796875 27.296875  Q 14.796875 17.390625 18.875 11.75  Q 22.953125 6.109375 30.078125 6.109375  Q 37.203125 6.109375 41.296875 11.75  Q 45.40625 17.390625 45.40625 27.296875  Q 45.40625 37.203125 41.296875 42.84375  Q 37.203125 48.484375 30.078125 48.484375  Q 22.953125 48.484375 18.875 42.84375  Q 14.796875 37.203125 14.796875 27.296875  z " id="DejaVuSans-64"/>
     <path d="M 54.890625 33.015625  L 54.890625 0  L 45.90625 0  L 45.90625 32.71875  Q 45.90625 40.484375 42.875 44.328125  Q 39.84375 48.1875 33.796875 48.1875  Q 26.515625 48.1875 22.3125 43.546875  Q 18.109375 38.921875 18.109375 30.90625  L 18.109375 0  L 9.078125 0  L 9.078125 75.984375  L 18.109375 75.984375  L 18.109375 46.1875  Q 21.34375 51.125 25.703125 53.5625  Q 30.078125 56 35.796875 56  Q 45.21875 56 50.046875 50.171875  Q 54.890625 44.34375 54.890625 33.015625  z " id="DejaVuSans-68"/>
     <path d="M 8.5 21.578125  L 8.5 54.6875  L 17.484375 54.6875  L 17.484375 21.921875  Q 17.484375 14.15625 20.5 10.265625  Q 23.53125 6.390625 29.59375 6.390625  Q 36.859375 6.390625 41.078125 11.03125  Q 45.3125 15.671875 45.3125 23.6875  L 45.3125 54.6875  L 54.296875 54.6875  L 54.296875 0  L 45.3125 0  L 45.3125 8.40625  Q 42.046875 3.421875 37.71875 1  Q 33.40625 -1.421875 27.6875 -1.421875  Q 18.265625 -1.421875 13.375 4.4375  Q 8.5 10.296875 8.5 21.578125  z M 31.109375 56  z " id="DejaVuSans-75"/>
    </defs>
    <g transform="translate(114.398438 35.472)scale(0.12 -0.12)">
     <use xlink:href="#DejaVuSans-52"/>
     <use x="69.419922" xlink:href="#DejaVuSans-65"/>
     <use x="130.943359" xlink:href="#DejaVuSans-73"/>
     <use x="183.042969" xlink:href="#DejaVuSans-70"/>
     <use x="246.519531" xlink:href="#DejaVuSans-6f"/>
     <use x="307.701172" xlink:href="#DejaVuSans-6e"/>
     <use x="371.080078" xlink:href="#DejaVuSans-73"/>
     <use x="423.179688" xlink:href="#DejaVuSans-65"/>
     <use x="484.703125" xlink:href="#DejaVuSans-73"/>
     <use x="536.802734" xlink:href="#DejaVuSans-20"/>
     <use x="568.589844" xlink:href="#DejaVuSans-6f"/>
     <use x="629.771484" xlink:href="#DejaVuSans-66"/>
     <use x="664.976562" xlink:href="#DejaVuSans-20"/>
     <use x="696.763672" xlink:href="#DejaVuSans-69"/>
     <use x="724.546875" xlink:href="#DejaVuSans-61"/>
     <use x="785.826172" xlink:href="#DejaVuSans-66"/>
     <use x="821.03125" xlink:href="#DejaVuSans-5f"/>
     <use x="871.03125" xlink:href="#DejaVuSans-63"/>
     <use x="926.011719" xlink:href="#DejaVuSans-6f"/>
     <use x="987.193359" xlink:href="#DejaVuSans-6e"/>
     <use x="1050.572266" xlink:href="#DejaVuSans-64"/>
     <use x="1114.048828" xlink:href="#DejaVuSans-5f"/>
     <use x="1164.048828" xlink:href="#DejaVuSans-61"/>
     <use x="1225.328125" xlink:href="#DejaVuSans-6c"/>
     <use x="1253.111328" xlink:href="#DejaVuSans-70"/>
     <use x="1316.587891" xlink:href="#DejaVuSans-68"/>
     <use x="1379.966797" xlink:href="#DejaVuSans-61"/>
     <use x="1441.246094" xlink:href="#DejaVuSans-5f"/>
     <use x="1491.246094" xlink:href="#DejaVuSans-6d"/>
     <use x="1588.658203" xlink:href="#DejaVuSans-63"/>
     <use x="1643.638672" xlink:href="#DejaVuSans-20"/>
     <use x="1675.425781" xlink:href="#DejaVuSans-6e"/>
     <use x="1738.804688" xlink:href="#DejaVuSans-65"/>
     <use x="1800.328125" xlink:href="#DejaVuSans-75"/>
     <use x="1863.707031" xlink:href="#DejaVuSans-72"/>
     <use x="1904.789062" xlink:href="#DejaVuSans-6f"/>
     <use x="1965.970703" xlink:href="#DejaVuSans-6e"/>
    </g>
   </g>
   <g id="legend_1">
    <g id="patch_7">
     <path d="M 286.798125 157.432  L 407.72 157.432  Q 409.72 157.432 409.72 155.432  L 409.72 112.397625  Q 409.72 110.397625 407.72 110.397625  L 286.798125 110.397625  Q 284.798125 110.397625 284.798125 112.397625  L 284.798125 155.432  Q 284.798125 157.432 286.798125 157.432  z " style="fill:#ffffff;opacity:0.8;stroke:#cccccc;stroke-linejoin:miter;"/>
    </g>
    <g id="line2d_14">
     <path d="M 288.798125 118.496062  L 308.798125 118.496062  " style="fill:none;stroke:#1f77b4;stroke-linecap:square;stroke-width:1.5;"/>
    </g>
    <g id="line2d_15"/>
    <g id="text_13">
     <!-- Soma -->
     <defs>
      <path d="M 53.515625 70.515625  L 53.515625 60.890625  Q 47.90625 63.578125 42.921875 64.890625  Q 37.9375 66.21875 33.296875 66.21875  Q 25.25 66.21875 20.875 63.09375  Q 16.5 59.96875 16.5 54.203125  Q 16.5 49.359375 19.40625 46.890625  Q 22.3125 44.4375 30.421875 42.921875  L 36.375 41.703125  Q 47.40625 39.59375 52.65625 34.296875  Q 57.90625 29 57.90625 20.125  Q 57.90625 9.515625 50.796875 4.046875  Q 43.703125 -1.421875 29.984375 -1.421875  Q 24.8125 -1.421875 18.96875 -0.25  Q 13.140625 0.921875 6.890625 3.21875  L 6.890625 13.375  Q 12.890625 10.015625 18.65625 8.296875  Q 24.421875 6.59375 29.984375 6.59375  Q 38.421875 6.59375 43.015625 9.90625  Q 47.609375 13.234375 47.609375 19.390625  Q 47.609375 24.75 44.3125 27.78125  Q 41.015625 30.8125 33.5 32.328125  L 27.484375 33.5  Q 16.453125 35.6875 11.515625 40.375  Q 6.59375 45.0625 6.59375 53.421875  Q 6.59375 63.09375 13.40625 68.65625  Q 20.21875 74.21875 32.171875 74.21875  Q 37.3125 74.21875 42.625 73.28125  Q 47.953125 72.359375 53.515625 70.515625  z " id="DejaVuSans-53"/>
     </defs>
     <g transform="translate(316.798125 121.996062)scale(0.1 -0.1)">
      <use xlink:href="#DejaVuSans-53"/>
      <use x="63.476562" xlink:href="#DejaVuSans-6f"/>
      <use x="124.658203" xlink:href="#DejaVuSans-6d"/>
      <use x="222.070312" xlink:href="#DejaVuSans-61"/>
     </g>
    </g>
    <g id="line2d_16">
     <path d="M 288.798125 133.174187  L 308.798125 133.174187  " style="fill:none;stroke:#ff7f0e;stroke-linecap:square;stroke-width:1.5;"/>
    </g>
    <g id="line2d_17"/>
    <g id="text_14">
     <!-- Proximal dendrite -->
     <defs>
      <path d="M 19.671875 64.796875  L 19.671875 37.40625  L 32.078125 37.40625  Q 38.96875 37.40625 42.71875 40.96875  Q 46.484375 44.53125 46.484375 51.125  Q 46.484375 57.671875 42.71875 61.234375  Q 38.96875 64.796875 32.078125 64.796875  z M 9.8125 72.90625  L 32.078125 72.90625  Q 44.34375 72.90625 50.609375 67.359375  Q 56.890625 61.8125 56.890625 51.125  Q 56.890625 40.328125 50.609375 34.8125  Q 44.34375 29.296875 32.078125 29.296875  L 19.671875 29.296875  L 19.671875 0  L 9.8125 0  z " id="DejaVuSans-50"/>
      <path d="M 54.890625 54.6875  L 35.109375 28.078125  L 55.90625 0  L 45.3125 0  L 29.390625 21.484375  L 13.484375 0  L 2.875 0  L 24.125 28.609375  L 4.6875 54.6875  L 15.28125 54.6875  L 29.78125 35.203125  L 44.28125 54.6875  z " id="DejaVuSans-78"/>
     </defs>
     <g transform="translate(316.798125 136.674187)scale(0.1 -0.1)">
      <use xlink:href="#DejaVuSans-50"/>
      <use x="60.287109" xlink:href="#DejaVuSans-72"/>
      <use x="101.369141" xlink:href="#DejaVuSans-6f"/>
      <use x="162.503906" xlink:href="#DejaVuSans-78"/>
      <use x="221.683594" xlink:href="#DejaVuSans-69"/>
      <use x="249.466797" xlink:href="#DejaVuSans-6d"/>
      <use x="346.878906" xlink:href="#DejaVuSans-61"/>
      <use x="408.158203" xlink:href="#DejaVuSans-6c"/>
      <use x="435.941406" xlink:href="#DejaVuSans-20"/>
      <use x="467.728516" xlink:href="#DejaVuSans-64"/>
      <use x="531.205078" xlink:href="#DejaVuSans-65"/>
      <use x="592.728516" xlink:href="#DejaVuSans-6e"/>
      <use x="656.107422" xlink:href="#DejaVuSans-64"/>
      <use x="719.583984" xlink:href="#DejaVuSans-72"/>
      <use x="760.697266" xlink:href="#DejaVuSans-69"/>
      <use x="788.480469" xlink:href="#DejaVuSans-74"/>
      <use x="827.689453" xlink:href="#DejaVuSans-65"/>
     </g>
    </g>
    <g id="line2d_18">
     <path d="M 288.798125 147.852312  L 308.798125 147.852312  " style="fill:none;stroke:#2ca02c;stroke-linecap:square;stroke-width:1.5;"/>
    </g>
    <g id="line2d_19"/>
    <g id="text_15">
     <!-- Distal dendrite -->
     <defs>
      <path d="M 19.671875 64.796875  L 19.671875 8.109375  L 31.59375 8.109375  Q 46.6875 8.109375 53.6875 14.9375  Q 60.6875 21.78125 60.6875 36.53125  Q 60.6875 51.171875 53.6875 57.984375  Q 46.6875 64.796875 31.59375 64.796875  z M 9.8125 72.90625  L 30.078125 72.90625  Q 51.265625 72.90625 61.171875 64.09375  Q 71.09375 55.28125 71.09375 36.53125  Q 71.09375 17.671875 61.125 8.828125  Q 51.171875 0 30.078125 0  L 9.8125 0  z " id="DejaVuSans-44"/>
     </defs>
     <g transform="translate(316.798125 151.352312)scale(0.1 -0.1)">
      <use xlink:href="#DejaVuSans-44"/>
      <use x="77.001953" xlink:href="#DejaVuSans-69"/>
      <use x="104.785156" xlink:href="#DejaVuSans-73"/>
      <use x="156.884766" xlink:href="#DejaVuSans-74"/>
      <use x="196.09375" xlink:href="#DejaVuSans-61"/>
      <use x="257.373047" xlink:href="#DejaVuSans-6c"/>
      <use x="285.15625" xlink:href="#DejaVuSans-20"/>
      <use x="316.943359" xlink:href="#DejaVuSans-64"/>
      <use x="380.419922" xlink:href="#DejaVuSans-65"/>
      <use x="441.943359" xlink:href="#DejaVuSans-6e"/>
      <use x="505.322266" xlink:href="#DejaVuSans-64"/>
      <use x="568.798828" xlink:href="#DejaVuSans-72"/>
      <use x="609.912109" xlink:href="#DejaVuSans-69"/>
      <use x="637.695312" xlink:href="#DejaVuSans-74"/>
      <use x="676.904297" xlink:href="#DejaVuSans-65"/>
     </g>
    </g>
   </g>
  </g>
  <g id="axes_2">
   <g id="patch_8">
    <path d="M 57.6 307.584  L 414.72 307.584  L 414.72 186.624  L 57.6 186.624  z " style="fill:#ffffff;"/>
   </g>
   <g id="matplotlib.axis_3">
    <g id="xtick_7">
     <g id="line2d_20">
      <g>
       <use style="stroke:#000000;stroke-width:0.8;" x="57.6" xlink:href="#m69fc77d871" y="307.584"/>
      </g>
     </g>
     <g id="text_16">
      <!-- 350 -->
      <defs>
       <path d="M 40.578125 39.3125  Q 47.65625 37.796875 51.625 33  Q 55.609375 28.21875 55.609375 21.1875  Q 55.609375 10.40625 48.1875 4.484375  Q 40.765625 -1.421875 27.09375 -1.421875  Q 22.515625 -1.421875 17.65625 -0.515625  Q 12.796875 0.390625 7.625 2.203125  L 7.625 11.71875  Q 11.71875 9.328125 16.59375 8.109375  Q 21.484375 6.890625 26.8125 6.890625  Q 36.078125 6.890625 40.9375 10.546875  Q 45.796875 14.203125 45.796875 21.1875  Q 45.796875 27.640625 41.28125 31.265625  Q 36.765625 34.90625 28.71875 34.90625  L 20.21875 34.90625  L 20.21875 43.015625  L 29.109375 43.015625  Q 36.375 43.015625 40.234375 45.921875  Q 44.09375 48.828125 44.09375 54.296875  Q 44.09375 59.90625 40.109375 62.90625  Q 36.140625 65.921875 28.71875 65.921875  Q 24.65625 65.921875 20.015625 65.03125  Q 15.375 64.15625 9.8125 62.3125  L 9.8125 71.09375  Q 15.4375 72.65625 20.34375 73.4375  Q 25.25 74.21875 29.59375 74.21875  Q 40.828125 74.21875 47.359375 69.109375  Q 53.90625 64.015625 53.90625 55.328125  Q 53.90625 49.265625 50.4375 45.09375  Q 46.96875 40.921875 40.578125 39.3125  z " id="DejaVuSans-33"/>
      </defs>
      <g transform="translate(48.05625 322.182437)scale(0.1 -0.1)">
       <use xlink:href="#DejaVuSans-33"/>
       <use x="63.623047" xlink:href="#DejaVuSans-35"/>
       <use x="127.246094" xlink:href="#DejaVuSans-30"/>
      </g>
     </g>
    </g>
    <g id="xtick_8">
     <g id="line2d_21">
      <g>
       <use style="stroke:#000000;stroke-width:0.8;" x="108.617143" xlink:href="#m69fc77d871" y="307.584"/>
      </g>
     </g>
     <g id="text_17">
      <!-- 400 -->
      <g transform="translate(99.073393 322.182437)scale(0.1 -0.1)">
       <use xlink:href="#DejaVuSans-34"/>
       <use x="63.623047" xlink:href="#DejaVuSans-30"/>
       <use x="127.246094" xlink:href="#DejaVuSans-30"/>
      </g>
     </g>
    </g>
    <g id="xtick_9">
     <g id="line2d_22">
      <g>
       <use style="stroke:#000000;stroke-width:0.8;" x="159.634286" xlink:href="#m69fc77d871" y="307.584"/>
      </g>
     </g>
     <g id="text_18">
      <!-- 450 -->
      <g transform="translate(150.090536 322.182437)scale(0.1 -0.1)">
       <use xlink:href="#DejaVuSans-34"/>
       <use x="63.623047" xlink:href="#DejaVuSans-35"/>
       <use x="127.246094" xlink:href="#DejaVuSans-30"/>
      </g>
     </g>
    </g>
    <g id="xtick_10">
     <g id="line2d_23">
      <g>
       <use style="stroke:#000000;stroke-width:0.8;" x="210.651429" xlink:href="#m69fc77d871" y="307.584"/>
      </g>
     </g>
     <g id="text_19">
      <!-- 500 -->
      <g transform="translate(201.107679 322.182437)scale(0.1 -0.1)">
       <use xlink:href="#DejaVuSans-35"/>
       <use x="63.623047" xlink:href="#DejaVuSans-30"/>
       <use x="127.246094" xlink:href="#DejaVuSans-30"/>
      </g>
     </g>
    </g>
    <g id="xtick_11">
     <g id="line2d_24">
      <g>
       <use style="stroke:#000000;stroke-width:0.8;" x="261.668571" xlink:href="#m69fc77d871" y="307.584"/>
      </g>
     </g>
     <g id="text_20">
      <!-- 550 -->
      <g transform="translate(252.124821 322.182437)scale(0.1 -0.1)">
       <use xlink:href="#DejaVuSans-35"/>
       <use x="63.623047" xlink:href="#DejaVuSans-35"/>
       <use x="127.246094" xlink:href="#DejaVuSans-30"/>
      </g>
     </g>
    </g>
    <g id="xtick_12">
     <g id="line2d_25">
      <g>
       <use style="stroke:#000000;stroke-width:0.8;" x="312.685714" xlink:href="#m69fc77d871" y="307.584"/>
      </g>
     </g>
     <g id="text_21">
      <!-- 600 -->
      <g transform="translate(303.141964 322.182437)scale(0.1 -0.1)">
       <use xlink:href="#DejaVuSans-36"/>
       <use x="63.623047" xlink:href="#DejaVuSans-30"/>
       <use x="127.246094" xlink:href="#DejaVuSans-30"/>
      </g>
     </g>
    </g>
    <g id="xtick_13">
     <g id="line2d_26">
      <g>
       <use style="stroke:#000000;stroke-width:0.8;" x="363.702857" xlink:href="#m69fc77d871" y="307.584"/>
      </g>
     </g>
     <g id="text_22">
      <!-- 650 -->
      <g transform="translate(354.159107 322.182437)scale(0.1 -0.1)">
       <use xlink:href="#DejaVuSans-36"/>
       <use x="63.623047" xlink:href="#DejaVuSans-35"/>
       <use x="127.246094" xlink:href="#DejaVuSans-30"/>
      </g>
     </g>
    </g>
    <g id="xtick_14">
     <g id="line2d_27">
      <g>
       <use style="stroke:#000000;stroke-width:0.8;" x="414.72" xlink:href="#m69fc77d871" y="307.584"/>
      </g>
     </g>
     <g id="text_23">
      <!-- 700 -->
      <g transform="translate(405.17625 322.182437)scale(0.1 -0.1)">
       <use xlink:href="#DejaVuSans-37"/>
       <use x="63.623047" xlink:href="#DejaVuSans-30"/>
       <use x="127.246094" xlink:href="#DejaVuSans-30"/>
      </g>
     </g>
    </g>
    <g id="text_24">
     <!-- Time [ms] -->
     <defs>
      <path d="M -0.296875 72.90625  L 61.375 72.90625  L 61.375 64.59375  L 35.5 64.59375  L 35.5 0  L 25.59375 0  L 25.59375 64.59375  L -0.296875 64.59375  z " id="DejaVuSans-54"/>
     </defs>
     <g transform="translate(210.806875 335.860562)scale(0.1 -0.1)">
      <use xlink:href="#DejaVuSans-54"/>
      <use x="61.037109" xlink:href="#DejaVuSans-69"/>
      <use x="88.820312" xlink:href="#DejaVuSans-6d"/>
      <use x="186.232422" xlink:href="#DejaVuSans-65"/>
      <use x="247.755859" xlink:href="#DejaVuSans-20"/>
      <use x="279.542969" xlink:href="#DejaVuSans-5b"/>
      <use x="318.556641" xlink:href="#DejaVuSans-6d"/>
      <use x="415.96875" xlink:href="#DejaVuSans-73"/>
      <use x="468.068359" xlink:href="#DejaVuSans-5d"/>
     </g>
    </g>
   </g>
   <g id="matplotlib.axis_4">
    <g id="ytick_5">
     <g id="line2d_28">
      <g>
       <use style="stroke:#000000;stroke-width:0.8;" x="57.6" xlink:href="#mffafa0f94f" y="307.584"/>
      </g>
     </g>
     <g id="text_25">
      <!-- 0.0 -->
      <defs>
       <path d="M 10.6875 12.40625  L 21 12.40625  L 21 0  L 10.6875 0  z " id="DejaVuSans-2e"/>
      </defs>
      <g transform="translate(34.696875 311.383219)scale(0.1 -0.1)">
       <use xlink:href="#DejaVuSans-30"/>
       <use x="63.623047" xlink:href="#DejaVuSans-2e"/>
       <use x="95.410156" xlink:href="#DejaVuSans-30"/>
      </g>
     </g>
    </g>
    <g id="ytick_6">
     <g id="line2d_29">
      <g>
       <use style="stroke:#000000;stroke-width:0.8;" x="57.6" xlink:href="#mffafa0f94f" y="286.547478"/>
      </g>
     </g>
     <g id="text_26">
      <!-- 0.2 -->
      <g transform="translate(34.696875 290.346697)scale(0.1 -0.1)">
       <use xlink:href="#DejaVuSans-30"/>
       <use x="63.623047" xlink:href="#DejaVuSans-2e"/>
       <use x="95.410156" xlink:href="#DejaVuSans-32"/>
      </g>
     </g>
    </g>
    <g id="ytick_7">
     <g id="line2d_30">
      <g>
       <use style="stroke:#000000;stroke-width:0.8;" x="57.6" xlink:href="#mffafa0f94f" y="265.510957"/>
      </g>
     </g>
     <g id="text_27">
      <!-- 0.4 -->
      <g transform="translate(34.696875 269.310175)scale(0.1 -0.1)">
       <use xlink:href="#DejaVuSans-30"/>
       <use x="63.623047" xlink:href="#DejaVuSans-2e"/>
       <use x="95.410156" xlink:href="#DejaVuSans-34"/>
      </g>
     </g>
    </g>
    <g id="ytick_8">
     <g id="line2d_31">
      <g>
       <use style="stroke:#000000;stroke-width:0.8;" x="57.6" xlink:href="#mffafa0f94f" y="244.474435"/>
      </g>
     </g>
     <g id="text_28">
      <!-- 0.6 -->
      <g transform="translate(34.696875 248.273654)scale(0.1 -0.1)">
       <use xlink:href="#DejaVuSans-30"/>
       <use x="63.623047" xlink:href="#DejaVuSans-2e"/>
       <use x="95.410156" xlink:href="#DejaVuSans-36"/>
      </g>
     </g>
    </g>
    <g id="ytick_9">
     <g id="line2d_32">
      <g>
       <use style="stroke:#000000;stroke-width:0.8;" x="57.6" xlink:href="#mffafa0f94f" y="223.437913"/>
      </g>
     </g>
     <g id="text_29">
      <!-- 0.8 -->
      <g transform="translate(34.696875 227.237132)scale(0.1 -0.1)">
       <use xlink:href="#DejaVuSans-30"/>
       <use x="63.623047" xlink:href="#DejaVuSans-2e"/>
       <use x="95.410156" xlink:href="#DejaVuSans-38"/>
      </g>
     </g>
    </g>
    <g id="ytick_10">
     <g id="line2d_33">
      <g>
       <use style="stroke:#000000;stroke-width:0.8;" x="57.6" xlink:href="#mffafa0f94f" y="202.401391"/>
      </g>
     </g>
     <g id="text_30">
      <!-- 1.0 -->
      <g transform="translate(34.696875 206.20061)scale(0.1 -0.1)">
       <use xlink:href="#DejaVuSans-31"/>
       <use x="63.623047" xlink:href="#DejaVuSans-2e"/>
       <use x="95.410156" xlink:href="#DejaVuSans-30"/>
      </g>
     </g>
    </g>
    <g id="text_31">
     <!-- Synaptic conductance [nS] -->
     <defs>
      <path d="M 32.171875 -5.078125  Q 28.375 -14.84375 24.75 -17.8125  Q 21.140625 -20.796875 15.09375 -20.796875  L 7.90625 -20.796875  L 7.90625 -13.28125  L 13.1875 -13.28125  Q 16.890625 -13.28125 18.9375 -11.515625  Q 21 -9.765625 23.484375 -3.21875  L 25.09375 0.875  L 2.984375 54.6875  L 12.5 54.6875  L 29.59375 11.921875  L 46.6875 54.6875  L 56.203125 54.6875  z " id="DejaVuSans-79"/>
     </defs>
     <g transform="translate(28.617187 314.254)rotate(-90)scale(0.1 -0.1)">
      <use xlink:href="#DejaVuSans-53"/>
      <use x="63.476562" xlink:href="#DejaVuSans-79"/>
      <use x="122.65625" xlink:href="#DejaVuSans-6e"/>
      <use x="186.035156" xlink:href="#DejaVuSans-61"/>
      <use x="247.314453" xlink:href="#DejaVuSans-70"/>
      <use x="310.791016" xlink:href="#DejaVuSans-74"/>
      <use x="350" xlink:href="#DejaVuSans-69"/>
      <use x="377.783203" xlink:href="#DejaVuSans-63"/>
      <use x="432.763672" xlink:href="#DejaVuSans-20"/>
      <use x="464.550781" xlink:href="#DejaVuSans-63"/>
      <use x="519.53125" xlink:href="#DejaVuSans-6f"/>
      <use x="580.712891" xlink:href="#DejaVuSans-6e"/>
      <use x="644.091797" xlink:href="#DejaVuSans-64"/>
      <use x="707.568359" xlink:href="#DejaVuSans-75"/>
      <use x="770.947266" xlink:href="#DejaVuSans-63"/>
      <use x="825.927734" xlink:href="#DejaVuSans-74"/>
      <use x="865.136719" xlink:href="#DejaVuSans-61"/>
      <use x="926.416016" xlink:href="#DejaVuSans-6e"/>
      <use x="989.794922" xlink:href="#DejaVuSans-63"/>
      <use x="1044.775391" xlink:href="#DejaVuSans-65"/>
      <use x="1106.298828" xlink:href="#DejaVuSans-20"/>
      <use x="1138.085938" xlink:href="#DejaVuSans-5b"/>
      <use x="1177.099609" xlink:href="#DejaVuSans-6e"/>
      <use x="1240.478516" xlink:href="#DejaVuSans-53"/>
      <use x="1303.955078" xlink:href="#DejaVuSans-5d"/>
     </g>
    </g>
   </g>
   <g id="line2d_34">
    <path clip-path="url(#p018eae89a6)" d="M 57.497966 307.584  L 313.706057 307.584  L 314.01216 213.435414  L 314.216229 202.401207  L 314.318263 204.244342  L 314.624366 222.513007  L 315.338606 270.289354  L 315.848777 289.576593  L 316.256914 297.951563  L 316.665051 302.563367  L 317.073189 305.016924  L 317.481326 306.290725  L 317.889463 306.940072  L 318.399634 307.318224  L 319.113874 307.508487  L 320.542354 307.578195  L 332.684434 307.584  L 334.112914 307.584  L 334.419017 213.435414  L 334.623086 202.401207  L 334.72512 204.244342  L 335.031223 222.513007  L 335.745463 270.289354  L 336.255634 289.576593  L 336.663771 297.951563  L 337.071909 302.563367  L 337.480046 305.016924  L 337.888183 306.290725  L 338.29632 306.940072  L 338.806491 307.318224  L 339.520731 307.508487  L 340.949211 307.578195  L 353.091291 307.584  L 414.822034 307.584  L 414.822034 307.584  " style="fill:none;stroke:#0000ff;stroke-linecap:square;stroke-width:1.5;"/>
   </g>
   <g id="line2d_35">
    <path clip-path="url(#p018eae89a6)" d="M 57.497966 307.584  L 211.671771 307.584  L 212.079909 230.921912  L 212.386011 208.196825  L 212.59008 202.96371  L 212.692114 202.401386  L 212.794149 202.893519  L 212.998217 206.286444  L 213.406354 218.789362  L 214.834834 267.65511  L 215.549074 283.278588  L 216.16128 292.138734  L 216.773486 297.951567  L 217.385691 301.663241  L 217.997897 303.986471  L 218.610103 305.418566  L 219.222309 306.290725  L 219.936549 306.881028  L 220.752823 307.236938  L 221.8752 307.454194  L 223.813851 307.560896  L 230.548114 307.583951  L 232.078629 307.583988  L 232.486766 230.921904  L 232.792869 208.196819  L 232.996937 202.963705  L 233.098971 202.401382  L 233.201006 202.893515  L 233.405074 206.286441  L 233.813211 218.78936  L 235.241691 267.65511  L 235.955931 283.278587  L 236.568137 292.138734  L 237.180343 297.951566  L 237.792549 301.663241  L 238.404754 303.986471  L 239.01696 305.418566  L 239.629166 306.290725  L 240.343406 306.881028  L 241.15968 307.236938  L 242.282057 307.454194  L 244.220709 307.560896  L 250.954971 307.583951  L 414.822034 307.584  L 414.822034 307.584  " style="fill:none;stroke:#008000;stroke-linecap:square;stroke-width:1.5;"/>
   </g>
   <g id="line2d_36">
    <path clip-path="url(#p018eae89a6)" d="M 57.497966 307.584  L 109.637486 307.584  L 109.943589 213.435414  L 110.147657 202.401207  L 110.249691 204.244342  L 110.555794 222.513007  L 111.270034 270.289354  L 111.780206 289.576593  L 112.188343 297.951563  L 112.59648 302.563367  L 113.004617 305.016924  L 113.412754 306.290725  L 113.820891 306.940072  L 114.331063 307.318224  L 115.045303 307.508487  L 116.473783 307.578195  L 128.615863 307.584  L 130.044343 307.584  L 130.350446 213.435414  L 130.554514 202.401207  L 130.656549 204.244342  L 130.962651 222.513007  L 131.676891 270.289354  L 132.187063 289.576593  L 132.5952 297.951563  L 133.003337 302.563367  L 133.411474 305.016924  L 133.819611 306.290725  L 134.227749 306.940072  L 134.73792 307.318224  L 135.45216 307.508487  L 136.88064 307.578195  L 149.02272 307.584  L 414.822034 307.584  L 414.822034 307.584  " style="fill:none;stroke:#ff0000;stroke-linecap:square;stroke-width:1.5;"/>
   </g>
   <g id="line2d_37">
    <path clip-path="url(#p018eae89a6)" d="M 57.497966 307.584  L 323.909486 307.584  L 324.419657 251.916104  L 324.929829 220.875598  L 325.337966 208.19683  L 325.644069 203.709957  L 325.848137 202.537335  L 325.950171 202.401391  L 326.052206 202.528568  L 326.256274 203.472763  L 326.562377 206.286449  L 327.072549 213.522116  L 328.194926 234.058277  L 329.623406 258.901609  L 330.643749 272.783894  L 331.562057 282.368628  L 332.480366 289.576605  L 333.29664 294.36369  L 334.112914 297.951567  L 334.929189 300.610642  L 335.745463 302.563368  L 336.561737 303.986471  L 337.480046 305.123622  L 338.398354 305.909034  L 339.418697 306.496538  L 340.643109 306.940072  L 342.173623 307.252009  L 344.316343 307.454194  L 344.826514 251.812484  L 345.336686 220.79293  L 345.744823 208.127859  L 346.050926 203.64976  L 346.254994 202.482365  L 346.357029 202.348863  L 346.459063 202.478374  L 346.663131 203.426935  L 346.969234 206.246474  L 347.479406 213.490295  L 348.601783 234.039044  L 350.030263 258.891505  L 351.050606 272.777526  L 351.968914 282.36443  L 352.887223 289.573841  L 353.703497 294.361785  L 354.519771 297.950255  L 355.336046 300.609739  L 356.15232 302.562747  L 356.968594 303.986044  L 357.886903 305.123343  L 358.805211 305.908851  L 359.825554 306.496424  L 361.049966 306.940007  L 362.58048 307.251977  L 364.825234 307.459896  L 368.804571 307.562918  L 382.987337 307.583968  L 414.822034 307.584  L 414.822034 307.584  " style="fill:none;stroke:#0000ff;stroke-dasharray:5.55,2.4;stroke-dashoffset:0;stroke-width:1.5;"/>
   </g>
   <g id="line2d_38">
    <path clip-path="url(#p018eae89a6)" d="M 57.497966 307.584  L 221.8752 307.584  L 222.691474 268.601357  L 223.405714 244.040471  L 224.119954 226.562268  L 224.73216 216.126034  L 225.344366 209.086074  L 225.854537 205.352831  L 226.364709 203.222107  L 226.772846 202.487815  L 227.078949 202.422149  L 227.385051 202.720552  L 227.793189 203.61238  L 228.30336 205.396466  L 229.0176 208.875584  L 230.037943 215.223297  L 231.670491 227.102837  L 234.935589 251.00119  L 236.670171 261.961149  L 238.200686 270.289391  L 239.629166 276.931008  L 241.057646 282.552953  L 242.282057 286.637065  L 243.098331 250.037564  L 243.812571 227.35876  L 244.526811 211.587714  L 245.139017 202.485844  L 245.751223 196.669949  L 246.261394 193.878201  L 246.669531 192.763935  L 246.975634 192.488742  L 247.179703 192.542479  L 247.485806 192.942684  L 247.893943 194.003422  L 248.404114 196.042692  L 249.118354 199.941455  L 250.138697 206.97021  L 251.87328 220.864903  L 254.934309 245.36231  L 256.668891 257.395941  L 258.199406 266.546828  L 259.627886 273.848091  L 261.056366 280.030702  L 262.484846 285.205588  L 263.811291 289.216407  L 265.137737 292.563702  L 266.464183 295.341063  L 267.790629 297.634003  L 269.219109 299.648805  L 270.647589 301.272946  L 272.076069 302.577071  L 273.606583 303.686552  L 275.341166 304.658077  L 277.177783 305.43049  L 279.320503 306.083064  L 281.87136 306.611554  L 284.932389 307.009425  L 289.01376 307.301332  L 295.033783 307.48604  L 306.359589 307.571092  L 360.029623 307.583999  L 414.822034 307.584  L 414.822034 307.584  " style="fill:none;stroke:#008000;stroke-dasharray:5.55,2.4;stroke-dashoffset:0;stroke-width:1.5;"/>
   </g>
   <g id="line2d_39">
    <path clip-path="url(#p018eae89a6)" d="M 57.497966 307.584  L 119.840914 307.584  L 120.351086 251.916104  L 120.861257 220.875598  L 121.269394 208.19683  L 121.575497 203.709957  L 121.779566 202.537335  L 121.8816 202.401391  L 121.983634 202.528568  L 122.187703 203.472763  L 122.493806 206.286449  L 123.003977 213.522116  L 124.126354 234.058277  L 125.554834 258.901609  L 126.575177 272.783894  L 127.493486 282.368628  L 128.411794 289.576605  L 129.228069 294.36369  L 130.044343 297.951567  L 130.860617 300.610642  L 131.676891 302.563368  L 132.493166 303.986471  L 133.411474 305.123622  L 134.329783 305.909034  L 135.350126 306.496538  L 136.574537 306.940072  L 138.105051 307.252009  L 140.247771 307.454194  L 140.757943 251.812484  L 141.268114 220.79293  L 141.676251 208.127859  L 141.982354 203.64976  L 142.186423 202.482365  L 142.288457 202.348863  L 142.390491 202.478374  L 142.59456 203.426935  L 142.900663 206.246474  L 143.410834 213.490295  L 144.533211 234.039044  L 145.961691 258.891505  L 146.982034 272.777526  L 147.900343 282.36443  L 148.818651 289.573841  L 149.634926 294.361785  L 150.4512 297.950255  L 151.267474 300.609739  L 152.083749 302.562747  L 152.900023 303.986044  L 153.818331 305.123343  L 154.73664 305.908851  L 155.756983 306.496424  L 156.981394 306.940007  L 158.511909 307.251977  L 160.756663 307.459896  L 164.736 307.562918  L 178.918766 307.583968  L 414.822034 307.584  L 414.822034 307.584  " style="fill:none;stroke:#ff0000;stroke-dasharray:5.55,2.4;stroke-dashoffset:0;stroke-width:1.5;"/>
   </g>
   <g id="patch_9">
    <path d="M 57.6 307.584  L 57.6 186.624  " style="fill:none;stroke:#000000;stroke-linecap:square;stroke-linejoin:miter;stroke-width:0.8;"/>
   </g>
   <g id="patch_10">
    <path d="M 414.72 307.584  L 414.72 186.624  " style="fill:none;stroke:#000000;stroke-linecap:square;stroke-linejoin:miter;stroke-width:0.8;"/>
   </g>
   <g id="patch_11">
    <path d="M 57.6 307.584  L 414.72 307.584  " style="fill:none;stroke:#000000;stroke-linecap:square;stroke-linejoin:miter;stroke-width:0.8;"/>
   </g>
   <g id="patch_12">
    <path d="M 57.6 186.624  L 414.72 186.624  " style="fill:none;stroke:#000000;stroke-linecap:square;stroke-linejoin:miter;stroke-width:0.8;"/>
   </g>
   <g id="legend_2">
    <g id="patch_13">
     <path d="M 342.774688 284.3615  L 407.72 284.3615  Q 409.72 284.3615 409.72 282.3615  L 409.72 193.624  Q 409.72 191.624 407.72 191.624  L 342.774688 191.624  Q 340.774688 191.624 340.774688 193.624  L 340.774688 282.3615  Q 340.774688 284.3615 342.774688 284.3615  z " style="fill:#ffffff;opacity:0.8;stroke:#cccccc;stroke-linejoin:miter;"/>
    </g>
    <g id="line2d_40">
     <path d="M 344.774688 199.722437  L 364.774688 199.722437  " style="fill:none;stroke:#0000ff;stroke-linecap:square;stroke-width:1.5;"/>
    </g>
    <g id="line2d_41"/>
    <g id="text_32">
     <!-- g_ex.s -->
     <defs>
      <path d="M 45.40625 27.984375  Q 45.40625 37.75 41.375 43.109375  Q 37.359375 48.484375 30.078125 48.484375  Q 22.859375 48.484375 18.828125 43.109375  Q 14.796875 37.75 14.796875 27.984375  Q 14.796875 18.265625 18.828125 12.890625  Q 22.859375 7.515625 30.078125 7.515625  Q 37.359375 7.515625 41.375 12.890625  Q 45.40625 18.265625 45.40625 27.984375  z M 54.390625 6.78125  Q 54.390625 -7.171875 48.1875 -13.984375  Q 42 -20.796875 29.203125 -20.796875  Q 24.46875 -20.796875 20.265625 -20.09375  Q 16.0625 -19.390625 12.109375 -17.921875  L 12.109375 -9.1875  Q 16.0625 -11.328125 19.921875 -12.34375  Q 23.78125 -13.375 27.78125 -13.375  Q 36.625 -13.375 41.015625 -8.765625  Q 45.40625 -4.15625 45.40625 5.171875  L 45.40625 9.625  Q 42.625 4.78125 38.28125 2.390625  Q 33.9375 0 27.875 0  Q 17.828125 0 11.671875 7.65625  Q 5.515625 15.328125 5.515625 27.984375  Q 5.515625 40.671875 11.671875 48.328125  Q 17.828125 56 27.875 56  Q 33.9375 56 38.28125 53.609375  Q 42.625 51.21875 45.40625 46.390625  L 45.40625 54.6875  L 54.390625 54.6875  z " id="DejaVuSans-67"/>
     </defs>
     <g transform="translate(372.774688 203.222437)scale(0.1 -0.1)">
      <use xlink:href="#DejaVuSans-67"/>
      <use x="63.476562" xlink:href="#DejaVuSans-5f"/>
      <use x="113.476562" xlink:href="#DejaVuSans-65"/>
      <use x="174.984375" xlink:href="#DejaVuSans-78"/>
      <use x="234.164062" xlink:href="#DejaVuSans-2e"/>
      <use x="265.951172" xlink:href="#DejaVuSans-73"/>
     </g>
    </g>
    <g id="line2d_42">
     <path d="M 344.774688 214.678687  L 364.774688 214.678687  " style="fill:none;stroke:#008000;stroke-linecap:square;stroke-width:1.5;"/>
    </g>
    <g id="line2d_43"/>
    <g id="text_33">
     <!-- g_ex.p -->
     <g transform="translate(372.774688 218.178687)scale(0.1 -0.1)">
      <use xlink:href="#DejaVuSans-67"/>
      <use x="63.476562" xlink:href="#DejaVuSans-5f"/>
      <use x="113.476562" xlink:href="#DejaVuSans-65"/>
      <use x="174.984375" xlink:href="#DejaVuSans-78"/>
      <use x="234.164062" xlink:href="#DejaVuSans-2e"/>
      <use x="265.951172" xlink:href="#DejaVuSans-70"/>
     </g>
    </g>
    <g id="line2d_44">
     <path d="M 344.774688 229.634937  L 364.774688 229.634937  " style="fill:none;stroke:#ff0000;stroke-linecap:square;stroke-width:1.5;"/>
    </g>
    <g id="line2d_45"/>
    <g id="text_34">
     <!-- g_in.d -->
     <g transform="translate(372.774688 233.134937)scale(0.1 -0.1)">
      <use xlink:href="#DejaVuSans-67"/>
      <use x="63.476562" xlink:href="#DejaVuSans-5f"/>
      <use x="113.476562" xlink:href="#DejaVuSans-69"/>
      <use x="141.259766" xlink:href="#DejaVuSans-6e"/>
      <use x="204.638672" xlink:href="#DejaVuSans-2e"/>
      <use x="236.425781" xlink:href="#DejaVuSans-64"/>
     </g>
    </g>
    <g id="line2d_46">
     <path d="M 344.774688 244.591187  L 364.774688 244.591187  " style="fill:none;stroke:#0000ff;stroke-dasharray:5.55,2.4;stroke-dashoffset:0;stroke-width:1.5;"/>
    </g>
    <g id="line2d_47"/>
    <g id="text_35">
     <!-- g_in.s -->
     <g transform="translate(372.774688 248.091187)scale(0.1 -0.1)">
      <use xlink:href="#DejaVuSans-67"/>
      <use x="63.476562" xlink:href="#DejaVuSans-5f"/>
      <use x="113.476562" xlink:href="#DejaVuSans-69"/>
      <use x="141.259766" xlink:href="#DejaVuSans-6e"/>
      <use x="204.638672" xlink:href="#DejaVuSans-2e"/>
      <use x="236.425781" xlink:href="#DejaVuSans-73"/>
     </g>
    </g>
    <g id="line2d_48">
     <path d="M 344.774688 259.547437  L 364.774688 259.547437  " style="fill:none;stroke:#008000;stroke-dasharray:5.55,2.4;stroke-dashoffset:0;stroke-width:1.5;"/>
    </g>
    <g id="line2d_49"/>
    <g id="text_36">
     <!-- g_in.p -->
     <g transform="translate(372.774688 263.047437)scale(0.1 -0.1)">
      <use xlink:href="#DejaVuSans-67"/>
      <use x="63.476562" xlink:href="#DejaVuSans-5f"/>
      <use x="113.476562" xlink:href="#DejaVuSans-69"/>
      <use x="141.259766" xlink:href="#DejaVuSans-6e"/>
      <use x="204.638672" xlink:href="#DejaVuSans-2e"/>
      <use x="236.425781" xlink:href="#DejaVuSans-70"/>
     </g>
    </g>
    <g id="line2d_50">
     <path d="M 344.774688 274.503687  L 364.774688 274.503687  " style="fill:none;stroke:#ff0000;stroke-dasharray:5.55,2.4;stroke-dashoffset:0;stroke-width:1.5;"/>
    </g>
    <g id="line2d_51"/>
    <g id="text_37">
     <!-- g_in.d -->
     <g transform="translate(372.774688 278.003687)scale(0.1 -0.1)">
      <use xlink:href="#DejaVuSans-67"/>
      <use x="63.476562" xlink:href="#DejaVuSans-5f"/>
      <use x="113.476562" xlink:href="#DejaVuSans-69"/>
      <use x="141.259766" xlink:href="#DejaVuSans-6e"/>
      <use x="204.638672" xlink:href="#DejaVuSans-2e"/>
      <use x="236.425781" xlink:href="#DejaVuSans-64"/>
     </g>
    </g>
   </g>
  </g>
 </g>
 <defs>
  <clipPath id="p6ebdfd4369">
   <rect height="120.96" width="357.12" x="57.6" y="41.472"/>
  </clipPath>
  <clipPath id="p018eae89a6">
   <rect height="120.96" width="357.12" x="57.6" y="186.624"/>
  </clipPath>
 </defs>
</svg>